<svg xmlns="http://www.w3.org/2000/svg" viewBox="0 0 110 150" role="img" aria-label="A cute groom helping open the invitation">
<defs><radialGradient id="face" cx="35%" cy="28%"><stop stop-color="#f6d8b7"/><stop offset="1" stop-color="#c78b69"/></radialGradient><linearGradient id="coat" x2="1" y2="1"><stop stop-color="#426d56"/><stop offset="1" stop-color="#183b2e"/></linearGradient><linearGradient id="gold" x2="0" y2="1"><stop stop-color="#f3dc9d"/><stop offset="1" stop-color="#b28c4c"/></linearGradient></defs>
<ellipse cx="55" cy="143" rx="29" ry="5" fill="#000" opacity=".23"/><path d="M31 90q24-14 48 0l8 43H22z" fill="url(#coat)" stroke="#d1b76c" stroke-width="1.4"/><path d="m45 88 10 12 10-12-5 39H49z" fill="#f0e8d3"/><path d="m54 98 5 0-2 7 4 20h-12l5-20z" fill="url(#gold)"/><path d="M35 129h16v12H34zm26 0h16l3 12H60z" fill="#1a2923"/><path d="M39 84v12l-20 18-6-6 17-24zm32 0v11l16 14 7-6-16-20z" fill="url(#coat)" stroke="#d1b76c" stroke-width="1.4" stroke-linejoin="round"/><circle cx="13" cy="111" r="4" fill="url(#face)"/><circle cx="88" cy="108" r="4" fill="url(#face)"/><path d="M39 81V70h31v12q-15 11-31-1" fill="#c78967"/><circle cx="55" cy="48" r="33" fill="url(#face)"/><path d="M23 48Q21 9 55 13q32 1 34 34l-8-2-8-19q-13 13-39 14L27 57z" fill="#28262b"/><path d="M31 30q10-20 33-14" fill="none" stroke="#494047" stroke-width="6" stroke-linecap="round"/><ellipse cx="44" cy="51" rx="2.4" ry="3.2" fill="#30282b"/><ellipse cx="66" cy="51" rx="2.4" ry="3.2" fill="#30282b"/><path d="M47 64q8 8 16 0" fill="none" stroke="#914f4a" stroke-width="2.3" stroke-linecap="round"/><ellipse cx="35" cy="60" rx="5" ry="2.5" fill="#d8796b" opacity=".4"/><ellipse cx="75" cy="60" rx="5" ry="2.5" fill="#d8796b" opacity=".4"/><path d="M19 108q-7 1-11 7" fill="none" stroke="#d1b76c" stroke-width="2" stroke-linecap="round"/>
</svg>
